<svg width="263" height="308" viewBox="0 0 263 308" fill="none" xmlns="http://www.w3.org/2000/svg">
<path opacity="0.4" d="M128.612 297.198L18.192 233.448C15.912 232.128 16.192 229.828 18.832 228.298L127.972 165.298C130.612 163.778 134.602 163.608 136.892 164.928L247.312 228.688C249.592 229.998 249.312 232.308 246.672 233.828L137.532 296.828C134.892 298.358 130.902 298.518 128.612 297.198Z" fill="#F27000"/>
<path d="M132.462 305.928C130.885 305.986 129.319 305.642 127.912 304.928L5.38184 234.148C4.81518 233.888 4.32976 233.479 3.97749 232.965C3.62522 232.451 3.41934 231.85 3.38184 231.228C3.38184 229.878 4.38183 228.548 6.05183 227.568L127.162 157.648C130.222 155.878 134.882 155.648 137.552 157.238L260.122 227.998C260.687 228.257 261.172 228.664 261.524 229.177C261.876 229.689 262.083 230.288 262.122 230.908C262.122 232.258 261.122 233.598 259.452 234.578L138.302 304.478C136.51 305.45 134.5 305.949 132.462 305.928ZM133.042 157.178C131.177 157.161 129.338 157.622 127.702 158.518L6.59183 228.428C5.21183 229.228 4.42183 230.248 4.42183 231.228C4.46861 231.66 4.62812 232.072 4.88435 232.423C5.14059 232.774 5.48458 233.052 5.88184 233.228L128.412 303.998C130.802 305.378 135.022 305.198 137.802 303.588L258.912 233.668C260.292 232.878 261.082 231.858 261.082 230.868C261.035 230.436 260.876 230.024 260.619 229.673C260.363 229.322 260.019 229.044 259.622 228.868L137.092 158.108C135.844 157.455 134.449 157.135 133.042 157.178Z" fill="#F27000"/>
<path d="M79.752 122.998C79.6952 121.993 79.255 121.048 78.522 120.358V124.218C79.212 124.338 79.752 123.878 79.752 122.998Z" fill="url(#paint0_linear)"/>
<path d="M184.382 102.888L137.982 129.678C135.042 131.378 130.592 131.558 128.052 130.088L80.222 102.478C79.4947 102.102 78.9268 101.478 78.622 100.718C78.242 101.908 78.752 103.118 80.222 103.958L128.052 131.578C130.592 133.048 135.052 132.858 137.982 131.168L184.382 104.378C186.382 103.238 187.132 101.728 186.692 100.378C186.256 101.47 185.434 102.363 184.382 102.888Z" fill="#FA9F97"/>
<path d="M169.942 92.718L136.492 111.998C135.405 112.606 134.191 112.95 132.948 113.002C131.704 113.054 130.465 112.813 129.332 112.298L94.8618 92.398C94.3783 92.1403 93.9947 91.7285 93.7718 91.228C93.5915 91.7017 93.6047 92.2274 93.8086 92.6914C94.0126 93.1554 94.3909 93.5206 94.8618 93.7081L129.332 113.618C130.466 114.128 131.704 114.367 132.947 114.315C134.19 114.263 135.404 113.921 136.492 113.318L169.942 93.998C171.412 93.148 171.942 91.998 171.542 90.998C171.221 91.7372 170.656 92.3442 169.942 92.718Z" fill="#FA9F97"/>
<path d="M125.572 137.708H71.4121V232.248C73.2718 232.222 75.0973 231.745 76.7321 230.858L123.142 204.068C123.763 203.787 124.308 203.36 124.729 202.824C125.15 202.288 125.436 201.658 125.562 200.988L125.572 137.708Z" fill="#FFA46C"/>
<path opacity="0.5" d="M124.542 137.708V200.188C124.417 200.858 124.131 201.489 123.71 202.025C123.289 202.561 122.744 202.988 122.122 203.268L75.7519 230.058C74.4261 230.782 72.9662 231.228 71.4619 231.368V232.248C73.3216 232.222 75.1471 231.745 76.7819 230.858L123.192 204.068C123.813 203.787 124.358 203.36 124.779 202.824C125.2 202.288 125.486 201.658 125.612 200.988V137.708H124.542Z" fill="#FCC29F"/>
<path d="M17.2519 137.708V200.998C17.2417 201.56 17.3976 202.112 17.7 202.585C18.0025 203.058 18.438 203.431 18.9519 203.658L66.7819 231.278C68.2024 232.015 69.7937 232.36 71.3919 232.278V137.708H17.2519Z" fill="#F27000"/>
<path d="M66.802 167.998L18.972 140.378C16.432 138.908 16.752 136.378 19.692 134.648L66.092 107.858C69.032 106.158 73.472 105.978 76.022 107.448L123.852 135.058C126.402 136.528 126.082 139.058 123.142 140.798L76.752 167.578C73.752 169.268 69.352 169.458 66.802 167.998Z" fill="#F27000"/>
<path d="M123.142 139.298L76.7519 166.088C73.8119 167.788 69.3719 167.968 66.8219 166.498L18.9919 138.888C18.2667 138.513 17.7019 137.888 17.4019 137.128C17.0219 138.318 17.5319 139.528 18.9919 140.368L66.8019 167.998C69.3519 169.468 73.8019 169.278 76.7319 167.588L123.142 140.798C125.142 139.658 125.892 138.148 125.442 136.798C125.012 137.888 124.192 138.779 123.142 139.298Z" fill="#FA9F97"/>
<path d="M108.752 129.128L75.252 148.438C74.1656 149.046 72.9515 149.39 71.7077 149.442C70.464 149.494 69.2254 149.253 68.092 148.738L33.612 128.838C33.1308 128.58 32.7503 128.168 32.532 127.668C32.351 128.14 32.3628 128.665 32.5648 129.129C32.7668 129.593 33.1428 129.959 33.612 130.148L68.092 150.058C69.2266 150.568 70.4645 150.807 71.7074 150.755C72.9504 150.702 74.164 150.361 75.252 149.758L108.752 130.448C110.212 129.598 110.752 128.448 110.352 127.448C110.02 128.17 109.457 128.761 108.752 129.128Z" fill="#FA9F97"/>
<path d="M186.812 31.998H132.662V126.528C134.523 126.51 136.35 126.033 137.982 125.138L184.382 98.3481C185.003 98.0695 185.548 97.6447 185.969 97.1102C186.39 96.5756 186.676 95.947 186.802 95.278L186.812 31.998Z" fill="#FFA46C"/>
<path opacity="0.5" d="M185.752 31.998V94.478C185.626 95.147 185.34 95.7756 184.919 96.3102C184.498 96.8447 183.953 97.2694 183.332 97.548L136.932 124.338C135.607 125.065 134.147 125.511 132.642 125.648V126.528C134.503 126.51 136.33 126.033 137.962 125.138L184.362 98.3481C184.983 98.0695 185.528 97.6447 185.949 97.1102C186.37 96.5756 186.656 95.947 186.782 95.278V31.998H185.752Z" fill="#FCC29F"/>
<path d="M78.5021 31.998V95.278C78.4966 95.8399 78.6555 96.3911 78.9594 96.8637C79.2632 97.3364 79.6987 97.7098 80.2121 97.938L128.042 125.558C129.463 126.295 131.054 126.641 132.652 126.558V31.998H78.5021Z" fill="#F27000"/>
<path d="M128.052 62.268L80.2218 34.658C77.6718 33.188 77.9918 30.658 80.9318 28.918L127.332 2.12796C130.272 0.437958 134.722 0.247958 137.262 1.71796L185.092 29.338C187.642 30.808 187.322 33.338 184.382 35.068L137.982 61.858C135.042 63.558 130.592 63.738 128.052 62.268Z" fill="#F27000"/>
<path d="M184.382 33.5781L137.982 60.3681C135.042 62.0681 130.592 62.2581 128.052 60.7881L80.222 33.1681C79.4925 32.7954 78.9237 32.1698 78.622 31.4081C78.242 32.6081 78.752 33.8081 80.222 34.6581L128.052 62.2681C130.592 63.7381 135.052 63.5581 137.982 61.8581L184.382 35.0681C186.382 33.9381 187.132 32.4181 186.692 31.0681C186.254 32.1589 185.433 33.0518 184.382 33.5781Z" fill="#FA9F97"/>
<path d="M171.692 22.5181H132.692V54.0981C134.031 54.0801 135.345 53.7369 136.522 53.0981L169.972 33.7781C170.42 33.58 170.814 33.2749 171.117 32.8896C171.42 32.5044 171.625 32.0506 171.712 31.5681L171.692 22.5181Z" fill="#FFA46C"/>
<path d="M93.6219 22.5181V31.5181C93.6177 31.9231 93.7319 32.3206 93.9504 32.6616C94.1689 33.0027 94.4822 33.2726 94.8519 33.4381L129.322 53.3381C130.349 53.8664 131.499 54.1115 132.652 54.0481V22.5181H93.6219Z" fill="#9D3F05"/>
<path d="M129.332 44.3381L94.8621 24.4381C93.0221 23.3781 93.2521 21.5281 95.3721 20.2981L128.822 0.998059C129.911 0.396388 131.125 0.0568961 132.368 0.00655452C133.611 -0.0437871 134.848 0.196408 135.982 0.708058L170.452 20.5981C172.292 21.6581 172.062 23.5081 169.942 24.7281L136.492 43.9981C135.409 44.6122 134.196 44.963 132.953 45.022C131.709 45.0811 130.469 44.8468 129.332 44.3381Z" fill="#DA5909"/>
<path d="M169.942 23.4181L136.492 42.7281C135.404 43.3313 134.19 43.6725 132.947 43.7246C131.704 43.7767 130.467 43.5382 129.332 43.0281L94.8619 23.1181C94.3782 22.8779 93.9878 22.484 93.7519 21.9981C93.5742 22.4719 93.5888 22.9965 93.7924 23.4598C93.996 23.9231 94.3727 24.2886 94.8419 24.4781L129.312 44.3781C130.445 44.8928 131.684 45.1339 132.928 45.0818C134.171 45.0297 135.386 44.6859 136.472 44.0781L169.922 24.7681C171.392 23.9281 171.922 22.7681 171.522 21.7681C171.192 22.4776 170.636 23.0578 169.942 23.4181Z" fill="#FA9F97"/>
<path d="M130.442 37.0779L107.442 23.7979C106.222 23.0879 106.372 21.8579 107.782 21.0379L130.102 8.15794C130.825 7.75151 131.634 7.52156 132.463 7.4868C133.292 7.45205 134.117 7.61347 134.872 7.95793L157.872 21.2379C159.092 21.9479 158.942 23.1779 157.532 23.9979L135.212 36.8779C134.487 37.2791 133.678 37.506 132.851 37.5407C132.023 37.5754 131.198 37.417 130.442 37.0779Z" fill="#F27000"/>
<path d="M107.442 23.798L111.752 26.268L130.132 15.658C130.857 15.2568 131.665 15.0299 132.493 14.9952C133.321 14.9605 134.146 15.1189 134.902 15.458L153.622 26.268L157.532 23.998C158.942 23.178 159.092 21.998 157.872 21.238L134.872 7.99797C134.117 7.65351 133.292 7.49209 132.463 7.52684C131.634 7.5616 130.825 7.79154 130.102 8.19797L107.752 20.998C106.372 21.858 106.222 23.088 107.442 23.798Z" fill="#9D3F05"/>
<path d="M132.662 7.48804C131.766 7.49517 130.886 7.72545 130.102 8.15804L107.752 20.998C106.342 21.818 106.192 22.998 107.412 23.758L111.752 26.268L130.132 15.658C130.918 15.2301 131.797 15.0001 132.692 14.988L132.662 7.48804Z" fill="#FFA46C"/>
<path d="M125.572 68.408H71.4121V162.938C73.2731 162.921 75.1009 162.444 76.7321 161.548L123.142 134.758C123.762 134.478 124.306 134.053 124.727 133.518C125.148 132.984 125.435 132.356 125.562 131.688L125.572 68.408Z" fill="#FFA46C"/>
<path opacity="0.5" d="M124.542 68.408V130.888C124.416 131.557 124.13 132.185 123.709 132.72C123.287 133.255 122.743 133.679 122.122 133.958L75.7519 160.748C74.428 161.477 72.9672 161.923 71.4619 162.058V162.938C73.3229 162.921 75.1507 162.444 76.7819 161.548L123.192 134.758C123.812 134.478 124.356 134.053 124.777 133.518C125.198 132.984 125.484 132.356 125.612 131.688V68.408H124.542Z" fill="#FCC29F"/>
<path d="M17.252 68.408V131.688C17.2443 132.249 17.4013 132.8 17.7034 133.273C18.0055 133.745 18.4396 134.119 18.952 134.348L66.802 161.998C68.2224 162.735 69.8137 163.08 71.412 162.998V68.408H17.252Z" fill="#F27000"/>
<path d="M66.802 98.6781L18.972 71.0681C16.432 69.5981 16.752 67.0681 19.692 65.3281L66.092 38.5381C69.032 36.8481 73.472 36.6581 76.022 38.1281L123.852 65.7481C126.402 67.2181 126.082 69.7481 123.142 71.4781L76.752 98.2681C73.752 99.9981 69.352 100.148 66.802 98.6781Z" fill="#F27000"/>
<path d="M123.142 69.998L76.7519 96.778C73.8119 98.478 69.3719 98.668 66.8219 97.198L18.9919 69.578C18.265 69.2049 17.6995 68.579 17.4019 67.818C17.0219 69.018 17.5319 70.218 18.9919 71.068L66.8219 98.678C69.3719 100.148 73.8219 99.968 76.7519 98.268L123.162 71.478C125.162 70.348 125.912 68.828 125.462 67.478C125.03 68.5779 124.202 69.4766 123.142 69.998Z" fill="#FA9F97"/>
<path d="M110.452 58.928H71.4519V90.508C72.7939 90.49 74.1116 90.1469 75.2919 89.508L108.752 70.188C109.2 69.9899 109.594 69.6848 109.897 69.2995C110.2 68.9143 110.405 68.4605 110.492 67.978L110.452 58.928Z" fill="#FFA46C"/>
<path d="M32.3819 58.928V67.928C32.3777 68.333 32.4919 68.7305 32.7104 69.0715C32.9289 69.4126 33.2422 69.6825 33.6119 69.848L68.0919 89.748C69.1155 90.2764 70.2618 90.5216 71.4119 90.458V58.928H32.3819Z" fill="#9D3F05"/>
<path d="M68.092 80.7479L33.612 60.8479C31.782 59.7879 32.012 57.9379 34.132 56.7079L67.582 37.3979C68.668 36.7934 69.8806 36.4522 71.1225 36.4018C72.3644 36.3514 73.6007 36.5933 74.732 37.1079L109.212 56.9979C111.042 58.0579 110.812 59.9079 108.702 61.1279L75.252 80.4479C74.1656 81.0557 72.9515 81.3995 71.7078 81.4517C70.464 81.5038 69.2254 81.2627 68.092 80.7479Z" fill="#DA5909"/>
<path d="M108.752 59.8279L75.2521 79.1379C74.1641 79.7412 72.9505 80.0824 71.7075 80.1345C70.4646 80.1866 69.2267 79.9481 68.0921 79.4379L33.6121 59.5279C33.1321 59.2735 32.7517 58.8649 32.5321 58.3679C32.3538 58.8406 32.3669 59.3641 32.5686 59.8272C32.7702 60.2903 33.1446 60.6565 33.6121 60.8479L68.0921 80.7479C69.2255 81.2627 70.4641 81.5038 71.7078 81.4517C72.9516 81.3995 74.1657 81.0557 75.2521 80.4479L108.752 61.1379C110.212 60.2979 110.752 59.1379 110.352 58.1379C110.024 58.8651 109.46 59.4604 108.752 59.8279Z" fill="#FA9F97"/>
<path d="M69.2019 73.488L46.2019 60.208C44.9719 59.498 45.1319 58.268 46.5419 57.448L68.8519 44.568C69.5772 44.1622 70.3877 43.9327 71.2181 43.8979C72.0484 43.8632 72.8753 44.0242 73.6319 44.368L96.6319 57.648C97.8519 58.358 97.7019 59.588 96.2819 60.408L73.9719 73.288C73.2469 73.6891 72.4384 73.916 71.6105 73.9507C70.7826 73.9854 69.958 73.827 69.2019 73.488Z" fill="#F27000"/>
<path d="M46.2019 60.208L50.4819 62.678L68.8519 52.068C69.5788 51.6667 70.3889 51.4398 71.2184 51.4051C72.0479 51.3704 72.8741 51.5288 73.6319 51.868L92.3419 62.678L96.2819 60.408C97.7019 59.588 97.8519 58.408 96.6319 57.648L73.6319 44.368C72.8753 44.0242 72.0484 43.8632 71.2181 43.8979C70.3877 43.9327 69.5772 44.1622 68.8519 44.568L46.5419 57.448C45.1319 58.268 44.9719 59.498 46.2019 60.208Z" fill="#9D3F05"/>
<path d="M71.4119 43.8979C70.5165 43.9076 69.6373 44.1377 68.8519 44.5679L46.5419 57.4479C45.1319 58.2679 44.9719 59.4479 46.2019 60.2079L50.4819 62.6779L68.8519 52.0679C69.639 51.6422 70.5172 51.4124 71.4119 51.3979V43.8979Z" fill="#FFA46C"/>
<path d="M248.252 136.758H194.092V231.288C195.952 231.265 197.778 230.788 199.412 229.898L245.812 203.108C246.433 202.829 246.977 202.405 247.399 201.87C247.82 201.336 248.106 200.707 248.232 200.038L248.252 136.758Z" fill="#FFA46C"/>
<path opacity="0.5" d="M247.222 136.528V198.998C247.099 199.667 246.815 200.295 246.395 200.83C245.975 201.365 245.432 201.79 244.812 202.068L198.402 228.858C197.077 229.585 195.617 230.031 194.112 230.168V231.048C195.972 231.025 197.798 230.548 199.432 229.658L245.832 202.868C246.453 202.589 246.997 202.165 247.419 201.63C247.84 201.096 248.126 200.467 248.252 199.798V136.528H247.222Z" fill="#FCC29F"/>
<path d="M139.932 136.528V199.808C139.929 200.369 140.089 200.919 140.392 201.392C140.696 201.864 141.13 202.238 141.642 202.468L189.472 230.078C190.892 230.815 192.484 231.161 194.082 231.078V136.528H139.932Z" fill="#F27000"/>
<path d="M189.482 166.798L141.652 139.188C139.102 137.718 139.422 135.188 142.362 133.448L188.752 106.658C191.692 104.968 196.132 104.778 198.682 106.248L246.512 133.868C249.052 135.338 248.732 137.868 245.792 139.598L199.392 166.388C196.472 168.088 192.032 168.268 189.482 166.798Z" fill="#F27000"/>
<path d="M245.812 138.108L199.412 164.898C196.472 166.598 192.032 166.788 189.482 165.318L141.652 137.698C140.923 137.328 140.356 136.701 140.062 135.938C139.672 137.138 140.192 138.338 141.652 139.188L189.482 166.798C192.032 168.268 196.482 168.088 199.412 166.388L245.812 139.598C247.812 138.468 248.562 136.948 248.122 135.598C247.688 136.691 246.865 137.585 245.812 138.108Z" fill="#FA9F97"/>
<path d="M233.122 127.048H194.122V158.628C195.461 158.61 196.775 158.267 197.952 157.628L231.402 138.308C231.85 138.108 232.243 137.802 232.548 137.417C232.852 137.033 233.06 136.58 233.152 136.098L233.122 127.048Z" fill="#FFA46C"/>
<path d="M155.052 127.048V136.048C155.048 136.453 155.162 136.851 155.38 137.192C155.599 137.533 155.912 137.803 156.282 137.968L190.752 157.918C191.775 158.447 192.922 158.692 194.072 158.628V127.048H155.052Z" fill="#9D3F05"/>
<path d="M190.752 148.868L156.292 128.998C154.462 127.948 154.692 126.098 156.802 124.868L190.252 105.558C191.34 104.955 192.554 104.614 193.796 104.561C195.039 104.509 196.277 104.748 197.412 105.258L231.892 125.168C233.722 126.228 233.492 128.078 231.372 129.298L197.922 148.608C196.832 149.213 195.614 149.551 194.368 149.596C193.122 149.642 191.883 149.392 190.752 148.868Z" fill="#DA5909"/>
<path d="M231.372 127.998L197.922 147.308C196.836 147.913 195.623 148.254 194.381 148.304C193.14 148.355 191.903 148.113 190.772 147.598L156.292 127.698C155.808 127.44 155.425 127.029 155.202 126.528C155.024 127.002 155.039 127.527 155.242 127.99C155.446 128.453 155.823 128.819 156.292 129.008L190.752 148.868C191.884 149.383 193.121 149.624 194.363 149.572C195.605 149.52 196.817 149.176 197.902 148.568L231.352 129.258C232.822 128.408 233.352 127.258 232.952 126.258C232.639 127.001 232.081 127.615 231.372 127.998Z" fill="#FA9F97"/>
<path d="M191.872 141.598L168.872 128.328C167.652 127.618 167.802 126.388 169.222 125.568L191.532 112.688C192.255 112.282 193.064 112.052 193.893 112.017C194.722 111.982 195.547 112.144 196.302 112.488L219.302 125.768C220.532 126.468 220.372 127.708 218.962 128.518L196.652 141.408C195.925 141.811 195.115 142.038 194.285 142.071C193.454 142.104 192.628 141.942 191.872 141.598Z" fill="#F27000"/>
<path d="M168.872 128.328L173.162 130.798L191.532 120.188C192.256 119.785 193.065 119.556 193.893 119.522C194.722 119.487 195.546 119.647 196.302 119.988L215.022 130.798L218.962 128.518C220.372 127.708 220.532 126.468 219.302 125.768L196.302 112.488C195.547 112.144 194.722 111.982 193.893 112.017C193.064 112.052 192.255 112.282 191.532 112.688L169.222 125.568C167.802 126.388 167.652 127.618 168.872 128.328Z" fill="#9D3F05"/>
<path opacity="0.3" d="M248.252 100.658L139.932 100.418V136.528C139.929 137.089 140.089 137.639 140.392 138.112C140.696 138.584 141.13 138.958 141.642 139.188L189.472 166.798C192.022 168.268 196.472 168.088 199.402 166.388L245.812 139.598C246.431 139.318 246.974 138.893 247.393 138.358C247.813 137.824 248.097 137.196 248.222 136.528L248.252 100.658Z" fill="#FCC29F"/>
<path d="M248.252 38.998H194.092V133.528C195.953 133.51 197.78 133.033 199.412 132.138L245.812 105.348C246.434 105.071 246.979 104.647 247.401 104.112C247.822 103.577 248.108 102.948 248.232 102.278L248.252 38.998Z" fill="#FFA46C"/>
<path opacity="0.5" d="M247.222 38.7681V101.248C247.099 101.917 246.815 102.545 246.395 103.08C245.975 103.615 245.432 104.04 244.812 104.318L198.402 131.108C197.077 131.835 195.617 132.281 194.112 132.418V133.298C195.973 133.28 197.8 132.803 199.432 131.908L245.832 105.118C246.454 104.841 246.999 104.417 247.421 103.882C247.842 103.347 248.128 102.718 248.252 102.048V38.7681H247.222Z" fill="#FCC29F"/>
<path d="M139.932 38.7681V102.048C139.929 102.609 140.089 103.159 140.392 103.632C140.696 104.104 141.13 104.478 141.642 104.708L189.472 132.328C190.892 133.065 192.484 133.411 194.082 133.328V38.7681H139.932Z" fill="#F27000"/>
<path d="M189.482 68.9981L141.652 41.4281C139.102 39.9581 139.422 37.4281 142.362 35.6981L188.752 8.89807C191.752 7.20807 196.152 6.99806 198.752 8.48806L246.582 36.1081C249.122 37.5781 248.802 40.1081 245.862 41.8381L199.462 68.6281C196.472 70.3281 192.032 70.5081 189.482 68.9981Z" fill="#F27000"/>
<path d="M245.812 40.3481L199.412 67.1481C196.472 68.8381 192.032 69.0281 189.482 67.5581L141.652 39.9381C140.923 39.568 140.356 38.941 140.062 38.1781C139.672 39.3781 140.192 40.5781 141.652 41.4281L189.482 68.9981C192.032 70.4681 196.482 70.2881 199.412 68.5881L245.812 41.7981C247.812 40.6681 248.562 39.1481 248.122 37.7981C247.696 38.9059 246.872 39.8151 245.812 40.3481Z" fill="#FA9F97"/>
<path d="M233.122 29.2881H194.122V60.8681C195.461 60.8501 196.775 60.5069 197.952 59.8681L231.402 40.5581C231.85 40.3553 232.243 40.0478 232.548 39.6615C232.852 39.2751 233.06 38.8213 233.152 38.3381L233.122 29.2881Z" fill="#FFA46C"/>
<path d="M155.052 29.2881V38.2881C155.048 38.6931 155.162 39.0906 155.38 39.4316C155.599 39.7727 155.912 40.0426 156.282 40.2081L190.752 60.1581C191.775 60.6865 192.922 60.9317 194.072 60.8681V29.2881H155.052Z" fill="#9D3F05"/>
<path d="M190.752 51.1081L156.272 31.2081C154.442 30.1481 154.672 28.2981 156.782 27.0681L190.252 7.75807C191.341 7.1564 192.555 6.81691 193.798 6.76656C195.041 6.71622 196.278 6.95642 197.412 7.46807L231.892 27.3681C233.722 28.4281 233.492 30.2781 231.372 31.4981L197.922 50.8081C196.835 51.419 195.619 51.7646 194.373 51.8167C193.127 51.8689 191.886 51.6261 190.752 51.1081Z" fill="#DA5909"/>
<path d="M231.372 30.188L197.922 49.498C196.835 50.0997 195.624 50.44 194.382 50.4921C193.141 50.5442 191.905 50.3066 190.772 49.798L156.292 29.888C155.81 29.6335 155.426 29.2253 155.202 28.7281C155.04 29.2028 155.061 29.7213 155.263 30.1807C155.465 30.6401 155.832 31.0068 156.292 31.208L190.752 51.108C191.884 51.6227 193.121 51.8638 194.363 51.8117C195.605 51.7595 196.817 51.4157 197.902 50.808L231.372 31.498C232.842 30.658 233.372 29.498 232.972 28.498C232.648 29.2283 232.084 29.825 231.372 30.188Z" fill="#FA9F97"/>
<path d="M191.872 43.8479L168.872 30.568C167.652 29.858 167.802 28.6279 169.222 27.8079L191.532 14.928C192.255 14.5215 193.064 14.2916 193.893 14.2568C194.722 14.2221 195.547 14.3835 196.302 14.728L219.302 28.008C220.532 28.718 220.372 29.9479 218.962 30.7679L196.652 43.648C195.925 44.0492 195.115 44.2761 194.286 44.3108C193.456 44.3456 192.63 44.1871 191.872 43.8479Z" fill="#F27000"/>
<path d="M168.872 30.5682L173.162 32.9982L191.532 22.3882C192.257 21.987 193.065 21.7601 193.893 21.7254C194.721 21.6907 195.546 21.8491 196.302 22.1882L215.022 32.9982L218.962 30.7282C220.372 29.9082 220.532 28.7282 219.302 27.9682L196.302 14.6882C195.547 14.3437 194.722 14.1823 193.893 14.217C193.064 14.2518 192.255 14.4817 191.532 14.8882L169.222 27.8082C167.802 28.6282 167.652 29.8582 168.872 30.5682Z" fill="#9D3F05"/>
<path d="M194.092 14.2581C193.196 14.2652 192.316 14.4955 191.532 14.9281L169.222 27.8081C167.802 28.6281 167.652 29.8081 168.872 30.5681L173.162 32.9981L191.532 22.3881C192.32 21.9645 193.198 21.7348 194.092 21.7181V14.2581Z" fill="#FFA46C"/>
<path d="M187.002 172.938H132.842V267.468C134.705 267.446 136.535 266.969 138.172 266.078L184.572 239.288C185.193 239.009 185.737 238.585 186.159 238.05C186.58 237.516 186.866 236.887 186.992 236.218L187.002 172.938Z" fill="#FFA46C"/>
<path opacity="0.5" d="M185.972 172.938V235.418C185.846 236.087 185.56 236.716 185.139 237.25C184.718 237.785 184.173 238.209 183.552 238.488L137.152 265.278C135.824 266.006 134.36 266.452 132.852 266.588V267.468C134.716 267.446 136.545 266.969 138.182 266.078L184.582 239.288C185.203 239.009 185.748 238.585 186.169 238.05C186.59 237.516 186.876 236.887 187.002 236.218V172.938H185.972Z" fill="#FCC29F"/>
<path d="M78.692 172.938V236.218C78.6865 236.78 78.8455 237.331 79.1493 237.804C79.4531 238.276 79.8886 238.65 80.402 238.878L128.232 266.488C129.648 267.227 131.237 267.572 132.832 267.488V172.938H78.692Z" fill="#F27000"/>
<path d="M128.242 203.208L80.4118 175.598C77.8618 174.128 78.1818 171.598 81.1218 169.858L127.522 143.068C130.462 141.378 134.912 141.188 137.452 142.658L185.282 170.278C187.832 171.748 187.512 174.278 184.572 176.008L138.172 202.798C135.232 204.498 130.752 204.678 128.242 203.208Z" fill="#F27000"/>
<path d="M184.572 174.518L138.172 201.308C135.232 203.008 130.782 203.198 128.242 201.728L80.4119 174.108C79.6824 173.735 79.1136 173.11 78.8119 172.348C78.4319 173.548 78.9419 174.748 80.4119 175.598L128.242 203.208C130.782 204.678 135.242 204.498 138.172 202.798L184.572 175.998C186.572 174.868 187.322 173.348 186.882 171.998C186.446 173.093 185.625 173.989 184.572 174.518Z" fill="#FA9F97"/>
<path d="M170.132 164.358L136.682 183.668C135.593 184.27 134.379 184.609 133.136 184.659C131.893 184.71 130.656 184.47 129.522 183.958L95.0519 164.058C94.5691 163.804 94.1854 163.396 93.9619 162.898C93.7846 163.37 93.7994 163.894 94.0032 164.355C94.2069 164.817 94.5834 165.18 95.0519 165.368L129.522 185.278C130.655 185.793 131.894 186.034 133.138 185.982C134.381 185.93 135.596 185.586 136.682 184.978L170.132 165.668C171.602 164.828 172.132 163.668 171.732 162.668C171.398 163.391 170.836 163.985 170.132 164.358Z" fill="#FA9F97"/>
<path d="M187.002 103.628H132.842V198.168C134.705 198.142 136.533 197.665 138.172 196.778L184.572 169.998C185.194 169.718 185.738 169.291 186.16 168.755C186.581 168.219 186.867 167.588 186.992 166.918L187.002 103.628Z" fill="#FFA46C"/>
<path opacity="0.5" d="M185.972 103.628V166.108C185.847 166.778 185.561 167.409 185.14 167.945C184.718 168.481 184.174 168.908 183.552 169.188L137.142 195.998C135.812 196.721 134.349 197.167 132.842 197.308V198.188C134.705 198.162 136.533 197.685 138.172 196.798L184.572 169.998C185.194 169.718 185.738 169.291 186.16 168.755C186.581 168.219 186.867 167.588 186.992 166.918V103.628H185.972Z" fill="#FCC29F"/>
<path d="M78.6919 103.628V166.908C78.6838 167.47 78.8417 168.023 79.1459 168.496C79.45 168.969 79.8869 169.342 80.4019 169.568L128.232 197.188C129.648 197.927 131.237 198.272 132.832 198.188V103.628H78.6919Z" fill="#F27000"/>
<path d="M128.242 133.908L80.4118 106.288C77.8618 104.818 78.1818 102.288 81.1218 100.558L127.522 73.768C130.462 72.068 134.912 71.888 137.452 73.358L185.282 100.998C187.832 102.468 187.512 104.998 184.572 106.728L138.172 133.528C135.232 135.188 130.752 135.378 128.242 133.908Z" fill="#F27000"/>
<path d="M184.572 105.218L138.172 131.998C135.232 133.698 130.782 133.878 128.242 132.408L80.4119 104.798C79.6817 104.421 79.1132 103.792 78.8119 103.028C78.4319 104.228 78.9419 105.438 80.4119 106.278L128.242 133.898C130.782 135.368 135.242 135.178 138.172 133.488L184.572 106.688C186.572 105.558 187.322 104.038 186.882 102.688C186.45 103.787 185.628 104.688 184.572 105.218Z" fill="#FA9F97"/>
<path d="M171.882 94.1479H132.882V125.728C134.225 125.716 135.544 125.373 136.722 124.728L170.172 105.418C170.622 105.219 171.016 104.912 171.319 104.525C171.622 104.138 171.826 103.682 171.912 103.198L171.882 94.1479Z" fill="#FFA46C"/>
<path d="M93.812 94.1479V103.148C93.8065 103.553 93.9201 103.951 94.1388 104.293C94.3574 104.634 94.6715 104.904 95.042 105.068L129.522 124.998C130.546 125.523 131.693 125.765 132.842 125.698V94.1479H93.812Z" fill="#9D3F05"/>
<path d="M129.522 115.998L95.052 96.0981C93.212 95.0381 93.442 93.1881 95.562 91.9681L129.012 72.6581C130.098 72.0504 131.313 71.7065 132.556 71.6544C133.8 71.6023 135.039 71.8434 136.172 72.3581L170.642 92.2581C172.482 93.3181 172.252 95.1681 170.132 96.3981L136.682 115.708C135.593 116.31 134.379 116.649 133.136 116.7C131.893 116.75 130.656 116.51 129.522 115.998Z" fill="#DA5909"/>
<path d="M170.132 95.048L136.682 114.358C135.595 114.966 134.381 115.31 133.138 115.362C131.894 115.414 130.655 115.173 129.522 114.658L95.0518 94.748C94.5671 94.4965 94.1826 94.0874 93.9618 93.588C93.7814 94.0616 93.7946 94.5873 93.9986 95.0513C94.2025 95.5153 94.5808 95.8805 95.0518 96.068L129.522 115.998C130.656 116.51 131.893 116.75 133.136 116.699C134.379 116.649 135.593 116.31 136.682 115.708L170.132 96.3979C171.602 95.5479 172.132 94.3979 171.732 93.3979C171.394 94.1089 170.832 94.6888 170.132 95.048Z" fill="#FA9F97"/>
<path d="M130.632 108.708L107.632 95.428C106.412 94.718 106.562 93.488 107.972 92.668L130.292 79.788C131.017 79.3869 131.825 79.16 132.653 79.1253C133.481 79.0906 134.306 79.249 135.062 79.588L158.062 92.868C159.282 93.578 159.132 94.8081 157.722 95.6281L135.402 108.508C134.679 108.914 133.87 109.144 133.041 109.179C132.212 109.214 131.387 109.053 130.632 108.708Z" fill="#F27000"/>
<path d="M107.632 95.428L111.912 97.898L130.292 87.2981C131.015 86.8916 131.824 86.6617 132.653 86.6269C133.482 86.5922 134.307 86.7536 135.062 87.0981L153.752 97.898L157.692 95.6281C159.102 94.8081 159.252 93.628 158.032 92.868L135.032 79.588C134.276 79.249 133.451 79.0906 132.623 79.1253C131.795 79.16 130.987 79.3869 130.262 79.788L107.942 92.668C106.562 93.488 106.412 94.718 107.632 95.428Z" fill="#9D3F05"/>
<path d="M132.842 79.1182C131.951 79.1361 131.077 79.3658 130.292 79.7882L107.972 92.6682C106.562 93.4882 106.412 94.7182 107.632 95.4282L111.912 97.8982L130.292 87.2982C131.073 86.8668 131.95 86.6365 132.842 86.6282V79.1182Z" fill="#FFA46C"/>
<path d="M0.471924 307.998C0.388839 307.996 0.307609 307.973 0.235886 307.931C0.164163 307.889 0.104299 307.829 0.0619204 307.758C0.0315288 307.705 0.0118239 307.647 0.00392176 307.587C-0.00398037 307.527 8.50055e-05 307.466 0.0158846 307.408C0.0316843 307.349 0.0589006 307.294 0.095978 307.246C0.133055 307.198 0.179252 307.158 0.231919 307.128L66.7519 268.728C66.8052 268.691 66.8657 268.665 66.9296 268.652C66.9935 268.639 67.0593 268.64 67.123 268.654C67.1866 268.668 67.2466 268.695 67.2992 268.733C67.3518 268.771 67.3959 268.82 67.4286 268.877C67.4613 268.933 67.4819 268.996 67.4891 269.06C67.4964 269.125 67.4901 269.191 67.4707 269.253C67.4512 269.315 67.4191 269.372 67.3763 269.422C67.3335 269.471 67.2809 269.51 67.2219 269.538L0.751923 307.908C0.672932 307.972 0.573176 308.004 0.471924 307.998Z" fill="#F27000"/>
<defs>
<linearGradient id="paint0_linear" x1="380.793" y1="831.265" x2="382.306" y2="831.265" gradientUnits="userSpaceOnUse">
<stop stop-color="#FA9F97"/>
<stop offset="1" stop-color="#FCC29F"/>
</linearGradient>
</defs>
</svg>
